<mxfile host="app.diagrams.net" agent="Mozilla/5.0 (X11; Linux x86_64; rv:131.0) Gecko/20100101 Firefox/131.0" version="24.9.1">
  <diagram id="R2lEEEUBdFMjLlhIrx00" name="Page-1">
    <mxGraphModel dx="1195" dy="598" grid="1" gridSize="10" guides="1" tooltips="1" connect="1" arrows="1" fold="1" page="1" pageScale="1" pageWidth="850" pageHeight="1100" math="0" shadow="0" extFonts="Permanent Marker^https://fonts.googleapis.com/css?family=Permanent+Marker">
      <root>
        <mxCell id="0" />
        <mxCell id="1" parent="0" />
        <mxCell id="cVz3hMdZg883InBvt44--5" value="" style="group;rounded=0;" parent="1" vertex="1" connectable="0">
          <mxGeometry x="120" y="280" width="280" height="200" as="geometry" />
        </mxCell>
        <mxCell id="cVz3hMdZg883InBvt44--2" value="&lt;div align=&quot;left&quot;&gt;DEVELOPER&lt;/div&gt;&lt;div align=&quot;left&quot;&gt;&lt;br&gt;&lt;/div&gt;&lt;div align=&quot;left&quot;&gt;&lt;u&gt;ID&lt;/u&gt; DeveloperName&lt;sub&gt; 1.1&lt;/sub&gt;&lt;/div&gt;&lt;div align=&quot;left&quot;&gt;&amp;nbsp;&amp;nbsp;&amp;nbsp;&amp;nbsp; Location&lt;sub&gt; 0.1&lt;/sub&gt;&lt;/div&gt;&lt;div align=&quot;left&quot;&gt;&amp;nbsp;&amp;nbsp;&amp;nbsp;&amp;nbsp; AvatarURL &lt;sub&gt;0.1&lt;/sub&gt;&lt;/div&gt;&lt;div align=&quot;left&quot;&gt;&amp;nbsp;&amp;nbsp;&amp;nbsp;&amp;nbsp; WebsiteURL &lt;sub&gt;0.1&lt;/sub&gt;&lt;/div&gt;&lt;div align=&quot;left&quot;&gt;&amp;nbsp;&amp;nbsp;&amp;nbsp;&amp;nbsp; AdditionalAgreement&lt;/div&gt;&lt;div align=&quot;left&quot;&gt;&amp;nbsp;&amp;nbsp;&amp;nbsp;&amp;nbsp;&amp;nbsp;&amp;nbsp;&amp;nbsp;&amp;nbsp; &lt;u&gt;ID&lt;/u&gt; AdditionalAgreementName &lt;sub&gt;1.1&lt;/sub&gt;&lt;/div&gt;&lt;div align=&quot;left&quot;&gt;&amp;nbsp;&amp;nbsp;&amp;nbsp;&amp;nbsp;&amp;nbsp;&amp;nbsp;&amp;nbsp;&amp;nbsp;&amp;nbsp;&amp;nbsp;&amp;nbsp;&amp;nbsp;&amp;nbsp; DocumentURL &lt;sub&gt;1.1&lt;/sub&gt;&lt;br&gt;&lt;/div&gt;" style="rounded=1;whiteSpace=wrap;html=1;imageVerticalAlign=top;verticalAlign=top;arcSize=7;" parent="cVz3hMdZg883InBvt44--5" vertex="1">
          <mxGeometry width="280" height="200" as="geometry" />
        </mxCell>
        <mxCell id="cVz3hMdZg883InBvt44--3" value="" style="shape=partialRectangle;whiteSpace=wrap;html=1;bottom=1;right=1;left=1;top=0;fillColor=none;routingCenterX=-0.5;rotation=-90;movable=0;resizable=0;rotatable=0;deletable=0;editable=0;locked=1;connectable=0;" parent="cVz3hMdZg883InBvt44--5" vertex="1">
          <mxGeometry x="220" y="117.19999999999999" width="50" height="14" as="geometry" />
        </mxCell>
        <mxCell id="cVz3hMdZg883InBvt44--4" value="&lt;font style=&quot;font-size: 9px;&quot;&gt;0.N&lt;/font&gt;" style="text;html=1;align=center;verticalAlign=middle;whiteSpace=wrap;rounded=0;movable=0;resizable=0;rotatable=0;deletable=0;editable=0;locked=1;connectable=0;" parent="cVz3hMdZg883InBvt44--5" vertex="1">
          <mxGeometry x="230" y="136" width="60" height="42" as="geometry" />
        </mxCell>
        <mxCell id="cVz3hMdZg883InBvt44--9" value="GAME" style="rounded=1;whiteSpace=wrap;html=1;labelBackgroundColor=#a4ff9d;fillColor=#A4FF9D;strokeColor=#7fe764;movable=0;resizable=0;rotatable=0;deletable=0;editable=0;locked=1;connectable=0;" parent="cVz3hMdZg883InBvt44--5" vertex="1">
          <mxGeometry x="50" y="160" width="80" height="30" as="geometry" />
        </mxCell>
        <mxCell id="1BDwAT2CPMoeF9wCbDxZ-1" value="" style="group;rounded=0;" vertex="1" connectable="0" parent="1">
          <mxGeometry x="120" y="550" width="280" height="200" as="geometry" />
        </mxCell>
        <mxCell id="1BDwAT2CPMoeF9wCbDxZ-2" value="&lt;div align=&quot;left&quot;&gt;GAME&lt;/div&gt;&lt;div align=&quot;left&quot;&gt;&lt;br&gt;&lt;/div&gt;&lt;div align=&quot;left&quot;&gt;&lt;u&gt;ID&lt;/u&gt; GameName&lt;sub&gt; 1.1&lt;/sub&gt;&lt;/div&gt;&lt;div align=&quot;left&quot;&gt;&amp;nbsp;&amp;nbsp;&amp;nbsp;&amp;nbsp; ReleaseDate&lt;sub&gt; 1.1&lt;/sub&gt;&lt;/div&gt;&lt;div align=&quot;left&quot;&gt;&amp;nbsp;&amp;nbsp;&amp;nbsp;&amp;nbsp; Description &lt;sub&gt;0.1&lt;/sub&gt;&lt;/div&gt;&lt;div align=&quot;left&quot;&gt;&amp;nbsp;&amp;nbsp;&amp;nbsp;&amp;nbsp; Price &lt;sub&gt;1.1&lt;/sub&gt;&lt;/div&gt;" style="rounded=1;whiteSpace=wrap;html=1;imageVerticalAlign=top;verticalAlign=top;arcSize=7;" vertex="1" parent="1BDwAT2CPMoeF9wCbDxZ-1">
          <mxGeometry width="190" height="200" as="geometry" />
        </mxCell>
        <mxCell id="1BDwAT2CPMoeF9wCbDxZ-5" value="PLAYER" style="rounded=1;whiteSpace=wrap;html=1;labelBackgroundColor=#a4ff9d;fillColor=#A4FF9D;strokeColor=#7fe764;movable=1;resizable=1;rotatable=1;deletable=1;editable=1;locked=0;connectable=1;" vertex="1" parent="1BDwAT2CPMoeF9wCbDxZ-1">
          <mxGeometry x="60" y="148" width="80" height="30" as="geometry" />
        </mxCell>
        <mxCell id="1BDwAT2CPMoeF9wCbDxZ-6" value="" style="shape=partialRectangle;whiteSpace=wrap;html=1;bottom=1;right=1;left=1;top=0;fillColor=none;routingCenterX=-0.5;rotation=-90;movable=1;resizable=1;rotatable=1;deletable=1;editable=1;locked=0;connectable=1;" vertex="1" parent="1BDwAT2CPMoeF9wCbDxZ-1">
          <mxGeometry x="140" y="46" width="30" height="14" as="geometry" />
        </mxCell>
        <mxCell id="1BDwAT2CPMoeF9wCbDxZ-7" value="&lt;font style=&quot;font-size: 10px;&quot;&gt;1.1&lt;/font&gt;" style="text;html=1;align=center;verticalAlign=middle;whiteSpace=wrap;rounded=0;movable=1;resizable=1;rotatable=1;deletable=1;editable=1;locked=0;connectable=1;" vertex="1" parent="1BDwAT2CPMoeF9wCbDxZ-1">
          <mxGeometry x="140" y="51" width="60" height="42" as="geometry" />
        </mxCell>
        <mxCell id="1BDwAT2CPMoeF9wCbDxZ-8" value="DEVELOPER" style="rounded=1;whiteSpace=wrap;html=1;labelBackgroundColor=#a4ff9d;fillColor=#A4FF9D;strokeColor=#7fe764;movable=1;resizable=1;rotatable=1;deletable=1;editable=1;locked=0;connectable=1;" vertex="1" parent="1BDwAT2CPMoeF9wCbDxZ-1">
          <mxGeometry x="60" y="106" width="90" height="30" as="geometry" />
        </mxCell>
        <mxCell id="1BDwAT2CPMoeF9wCbDxZ-9" value="&lt;font style=&quot;font-size: 10px;&quot;&gt;1.1&lt;/font&gt;" style="text;html=1;align=center;verticalAlign=middle;whiteSpace=wrap;rounded=0;movable=1;resizable=1;rotatable=1;deletable=1;editable=1;locked=0;connectable=1;" vertex="1" parent="1BDwAT2CPMoeF9wCbDxZ-1">
          <mxGeometry x="130" y="120" width="60" height="42" as="geometry" />
        </mxCell>
        <mxCell id="1BDwAT2CPMoeF9wCbDxZ-10" value="&lt;font style=&quot;font-size: 9px;&quot;&gt;0.N&lt;/font&gt;" style="text;html=1;align=center;verticalAlign=middle;whiteSpace=wrap;rounded=0;movable=1;resizable=1;rotatable=1;deletable=1;editable=1;locked=0;connectable=1;" vertex="1" parent="1BDwAT2CPMoeF9wCbDxZ-1">
          <mxGeometry x="120" y="158" width="60" height="42" as="geometry" />
        </mxCell>
        <mxCell id="1BDwAT2CPMoeF9wCbDxZ-11" value="" style="group;rounded=0;" vertex="1" connectable="0" parent="1">
          <mxGeometry x="380" y="550" width="170" height="200" as="geometry" />
        </mxCell>
        <mxCell id="1BDwAT2CPMoeF9wCbDxZ-12" value="&lt;div align=&quot;left&quot;&gt;PLAYER&lt;/div&gt;&lt;div align=&quot;left&quot;&gt;&lt;br&gt;&lt;/div&gt;&lt;div align=&quot;left&quot;&gt;&lt;u&gt;ID&lt;/u&gt; Email&lt;sub&gt; 1.1&lt;/sub&gt;&lt;/div&gt;&lt;div align=&quot;left&quot;&gt;&amp;nbsp;&amp;nbsp;&amp;nbsp;&amp;nbsp; PublicName&lt;sub&gt; 1.1&lt;/sub&gt;&lt;/div&gt;&lt;div align=&quot;left&quot;&gt;&amp;nbsp;&amp;nbsp;&amp;nbsp;&amp;nbsp; Description &lt;sub&gt;0.1&lt;/sub&gt;&lt;/div&gt;&lt;div align=&quot;left&quot;&gt;&amp;nbsp;&amp;nbsp;&amp;nbsp;&amp;nbsp; Country &lt;sub&gt;0.1&lt;/sub&gt;&lt;/div&gt;&lt;div align=&quot;left&quot;&gt;&amp;nbsp;&amp;nbsp;&amp;nbsp;&amp;nbsp; City &lt;sub&gt;0.1&lt;/sub&gt;&lt;/div&gt;&lt;div align=&quot;left&quot;&gt;&amp;nbsp;&amp;nbsp;&amp;nbsp;&amp;nbsp; AvatarURL &lt;sub&gt;0.1&lt;/sub&gt;&lt;/div&gt;" style="rounded=1;whiteSpace=wrap;html=1;imageVerticalAlign=top;verticalAlign=top;arcSize=7;" vertex="1" parent="1BDwAT2CPMoeF9wCbDxZ-11">
          <mxGeometry width="170" height="190" as="geometry" />
        </mxCell>
        <mxCell id="1BDwAT2CPMoeF9wCbDxZ-15" value="GAME" style="rounded=1;whiteSpace=wrap;html=1;labelBackgroundColor=#a4ff9d;fillColor=#A4FF9D;strokeColor=#7fe764;movable=1;resizable=1;rotatable=1;deletable=1;editable=1;locked=0;connectable=1;" vertex="1" parent="1BDwAT2CPMoeF9wCbDxZ-11">
          <mxGeometry x="50" y="140" width="80" height="30" as="geometry" />
        </mxCell>
      </root>
    </mxGraphModel>
  </diagram>
</mxfile>
